# xmcd
#
# Track frame offsets: 
#        150
#        5782
#        27132
#        37747
#        48108
#
# Disc length: 774 seconds
#
# Revision: 0
# Processed by: cddbd v1.5.2PL0 Copyright (c) Steve Scherf et al.
# Submitted via: ExactAudioCopy v0.95b3
#
DISCID=2d030405
DTITLE=The Rolling Stones  - Little Boy Blue - FLAC
DYEAR=1900
DGENRE=
TTITLE0=Medley (Little Queenie, Beautiful Delilah, La Bamba, On Your W
TTITLE0=ay To School,
TTITLE1=Little Queenie
TTITLE2=Beautiful Delilah
TTITLE3=Down The Road Apiece
TTITLE4=I Ain't Got You
EXTD=
EXTT0=
EXTT1=
EXTT2=
EXTT3=
EXTT4=
PLAYORDER=
